<?xml version="1.0" encoding="UTF-8" standalone="no"?>
<!-- Created with Inkscape (http://www.inkscape.org/) -->

<svg
   version="1.1"
   id="svg9"
   width="188"
   height="189"
   viewBox="0 0 188 189"
   sodipodi:docname="Ion_Tutors.svg"
   inkscape:version="1.2.2 (732a01da63, 2022-12-09)"
   xmlns:inkscape="http://www.inkscape.org/namespaces/inkscape"
   xmlns:sodipodi="http://sodipodi.sourceforge.net/DTD/sodipodi-0.dtd"
   xmlns="http://www.w3.org/2000/svg"
   xmlns:svg="http://www.w3.org/2000/svg">
  <defs
     id="defs13" />
  <sodipodi:namedview
     id="namedview11"
     pagecolor="#505050"
     bordercolor="#ffffff"
     borderopacity="1"
     inkscape:showpageshadow="0"
     inkscape:pageopacity="0"
     inkscape:pagecheckerboard="1"
     inkscape:deskcolor="#505050"
     showgrid="false"
     inkscape:zoom="4.1005291"
     inkscape:cx="93.890323"
     inkscape:cy="92.06129"
     inkscape:window-width="1920"
     inkscape:window-height="991"
     inkscape:window-x="-9"
     inkscape:window-y="-9"
     inkscape:window-maximized="1"
     inkscape:current-layer="g15" />
  <g
     inkscape:groupmode="layer"
     inkscape:label="Image"
     id="g15">
    <path
       style="fill:#f9c85a;stroke:none"
       d="m 93.058157,4.3180311 c -6.04,1.01294 -8.6695,6.2276899 -14.0394,8.1735799 -32.851697,11.9049 -59.100097,28.8657 -67.830197,65.3434 -3.6911003,15.4229 -2.7922303,32.002999 2.2029,46.999999 1.356,4.071 3.5675,14.099 9.6382,12.914 7.5855,-1.482 2.7988,-10.746 1.2569,-14.914 -6.9194,-18.702 -5.7264,-41.286199 3.6613,-58.999999 8.7642,-16.5375 30.2519,-39.7982 51.070897,-39.5517 8.3287,0.0986 11.6681,11.5918 22.038603,6.3727 13.7358,-6.9126 7.4748,-28.9330149 -7.999203,-26.3379799 M 125.20616,18.906011 c -4.041,2.1234 -2.9,6.8214 0,9.2917 16.843,14.3446 32.643,22.2024 40.634,44.6373 6.975,19.5788 6.946,52.002999 -9.543,67.642999 -5.828,5.528 -14.867,-0.566 -19.666,9.361 -5.374,11.114 5.792,23.478 17.423,19.268 10.551,-3.818 6.216,-13.193 10.724,-20.442 19.63,-31.57 22.99,-70.535999 0.121,-101.829999 -7.154,-9.7895 -17.058,-19.0827 -27.841,-24.7384 -3.182,-1.6689 -8.169,-5.1259 -11.852,-3.1906 m -35.148003,33.3572 c -7.1246,1.0226 -13.9176,3.182 -20,7.1197 -41.282997,26.7256 -13.947497,89.920099 33.000003,83.152099 56.291,-8.115 43.217,-98.339999 -13.000003,-90.271799 m 3.1296,11.2338 c 8.899403,-2.9315 9.822403,21.2977 2.7662,23.4869 -9.0304,2.8017 -9.6713,-21.2123 -2.7662,-23.4869 m -28.0856,28.7716 c 4.0192,-1.1732 12.0096,-1.3211 15.8974,0.3087 3.7128,1.5565 5.0754,6.7358 0.8302,8.654299 -3.7423,1.6914 -14.8019,1.6974 -18.542397,0 -4.7634,-2.161199 -2.1662,-7.800899 1.814797,-8.962999 m 43.975003,0 c 4.003,-1.1449 12.014,-1.3538 15.872,0.3087 3.599,1.5508 5.045,6.7646 0.88,8.654299 -3.741,1.6974 -14.8,1.6914 -18.543,0 -4.881,-2.205999 -2.3,-7.792699 1.791,-8.962999 M 93.163057,107.49701 c 8.977103,-2.892 9.833103,21.302 2.7909,23.487 -8.971,2.783 -9.7717,-21.238 -2.7909,-23.487 m -56.104897,34.992 c -10.8881,3.358 -13.9818,19.005 -3.9568,25.337 4.9909,3.152 10.7757,0.767 15.9568,3.004 21.162097,9.136 53.142,22.458 75.772,7.726 4.186,-2.725 3.572,-9.262 -1.791,-9.987 -6.138,-0.831 -13.703,3.489 -19.981,4.096 -15.296703,1.481 -30.553303,-1.625 -43.9799,-9.092 -8.8395,-4.916 -4.294,-26.552 -22.0201,-21.084 z"
       id="path74701"
       sodipodi:nodetypes="cccccccscccccccccsccccsccscccccccccccccccccccccc" />
  </g>
</svg>
